<?xml version="1.0" encoding="utf-8"?>
<!-- Generator: Adobe Illustrator 19.2.1, SVG Export Plug-In . SVG Version: 6.00 Build 0)  -->
<svg version="1.1" id="Layer_1" xmlns="http://www.w3.org/2000/svg" xmlns:xlink="http://www.w3.org/1999/xlink" x="0px" y="0px"
	 viewBox="0 0 29 20" style="enable-background:new 0 0 29 20;" xml:space="preserve">
<path d="M29,1.9V1.8c0-0.5-0.2-0.9-0.5-1.2l0,0c0,0,0,0,0,0c0,0,0,0,0,0c-0.1-0.1-0.2-0.1-0.2-0.2c0,0,0,0-0.1,0
	c-0.1,0-0.2-0.1-0.3-0.1c0,0,0,0-0.1,0c-0.1,0-0.2-0.1-0.3-0.1h-0.1c-0.1,0-0.3,0-0.4,0H2.1C1.9,0,1.7,0,1.6,0c0,0-0.1,0-0.1,0
	c-0.1,0-0.2,0-0.3,0.1c0,0,0,0-0.1,0C1,0.2,0.9,0.3,0.8,0.3l0,0c-0.1,0-0.2,0.1-0.2,0.1L0.5,0.6C0.2,0.9,0,1.2,0,1.6v16.8
	c0.1,0.5,0.3,0.9,0.7,1.2C1.1,19.9,1.5,20,2,20h25c0.1,0,0.3,0,0.4,0h0.1c0.1,0,0.2,0,0.3-0.1h0c0.7-0.2,1.2-0.9,1.2-1.7L29,1.9
	L29,1.9z M26.6,1.4l-12,11.5l-2.7-2.6L2.4,1.4H26.6z M1.4,17.9V2.3l8.9,8.4L1.4,17.9z M14.2,18.7H2.7l8.6-7l2.8,2.7
	c0.1,0.1,0.2,0.2,0.3,0.2h0.2c0.1,0,0.3-0.1,0.3-0.2l2.6-2.5l8.7,6.8H14.2z M27.6,17.9l-8.9-7.1l8.9-8.5V17.9z"/>
</svg>
