<svg xmlns="http://www.w3.org/2000/svg" width="30" height="58" viewBox="0 0 30 58">
  <metadata><?xpacket begin="﻿" id="W5M0MpCehiHzreSzNTczkc9d"?>
<x:xmpmeta xmlns:x="adobe:ns:meta/" x:xmptk="Adobe XMP Core 5.6-c138 79.159824, 2016/09/14-01:09:01        ">
   <rdf:RDF xmlns:rdf="http://www.w3.org/1999/02/22-rdf-syntax-ns#">
      <rdf:Description rdf:about=""/>
   </rdf:RDF>
</x:xmpmeta>
                                                                                                    
                                                                                                    
                                                                                                    
                                                                                                    
                                                                                                    
                                                                                                    
                                                                                                    
                                                                                                    
                                                                                                    
                                                                                                    
                                                                                                    
                                                                                                    
                                                                                                    
                                                                                                    
                                                                                                    
                                                                                                    
                                                                                                    
                                                                                                    
                                                                                                    
                                                                                                    
                           
<?xpacket end="w"?></metadata>
<defs>
    <style>
      .cls-1 {
        fill: #dd0031;
        fill-rule: evenodd;
      }
    </style>
  </defs>
  <path id="mouse" class="cls-1" d="M1265.01,1447.91v14.92a15,15,0,0,0,30,0v-14.92A15,15,0,0,0,1265.01,1447.91Zm15-11.6a11.668,11.668,0,0,1,11.67,11.6v14.92a11.665,11.665,0,0,1-23.33,0v-14.92A11.666,11.666,0,0,1,1280.01,1436.31Zm0,14.09a1.671,1.671,0,0,0,1.67-1.66v-4.97a1.665,1.665,0,0,0-3.33,0v4.97A1.669,1.669,0,0,0,1280.01,1450.4Zm-1.16,40.1a1.607,1.607,0,0,0,2.33,0l4.17-4.14a1.607,1.607,0,0,0,0-2.32,1.63,1.63,0,0,0-2.34,0l-3,2.98-3-2.98a1.618,1.618,0,0,0-2.33,0,1.59,1.59,0,0,0,0,2.32Z" transform="translate(-1265 -1433)"/>
</svg>
